<svg xmlns="http://www.w3.org/2000/svg" version="1.1" xmlns:xlink="http://www.w3.org/1999/xlink" xmlns:svgjs="http://svgjs.dev/svgjs" width="1000" height="275" viewBox="0 0 1000 275"><g transform="matrix(1,0,0,1,-0.6060606060606233,-0.5824068928207851)"><svg viewBox="0 0 396 109" data-background-color="#ffffff" preserveAspectRatio="xMidYMid meet" height="275" width="1000" xmlns="http://www.w3.org/2000/svg" xmlns:xlink="http://www.w3.org/1999/xlink"><g id="tight-bounds" transform="matrix(1,0,0,1,0.2400000000000091,0.2308449138816968)"><svg viewBox="0 0 395.52 108.53831017223662" height="108.53831017223662" width="395.52"><g><svg viewBox="0 0 575.3682002643109 157.89212222777442" height="108.53831017223662" width="395.52"><g transform="matrix(1,0,0,1,179.84820026431092,2.7800590744398477)"><svg viewBox="0 0 395.52 152.33200407889473" height="152.33200407889473" width="395.52"><g><svg viewBox="0 0 395.52 152.33200407889473" height="152.33200407889473" width="395.52"><g><svg viewBox="0 0 395.52 93.00427843803055" height="93.00427843803055" width="395.52"><g transform="matrix(1,0,0,1,0,0)"><svg width="395.52" viewBox="1.45 -41 176.69 41.55" height="93.00427843803055" data-palette-color="#570df8"><path d="M18.95 0.55Q10.45 0.55 5.95-4.53 1.45-9.6 1.45-18.4L1.45-18.4Q1.45-24.2 3.83-28.53 6.2-32.85 10.35-35.2 14.5-37.55 19.75-37.55L19.75-37.55Q21.95-37.55 24-37.27 26.05-37 28.85-36.55L28.85-36.55Q30.95-36.2 31.15-36.2L31.15-36.2 30.6-25.9 26-25.9 24.45-33.05Q23.9-33.6 22.55-33.95 21.2-34.3 19.1-34.3L19.1-34.3Q14.85-34.3 12.28-30.38 9.7-26.45 9.7-19L9.7-19Q9.7-11.8 12.15-7.25 14.6-2.7 19.3-2.7L19.3-2.7Q21.55-2.7 22.78-3.13 24-3.55 24.85-4.35L24.85-4.35 27.05-9.5 31.25-9.1 30.25-1.35Q29.2-1.25 28.18-0.98 27.15-0.7 26.9-0.65L26.9-0.65Q24.9-0.1 23.18 0.23 21.45 0.55 18.95 0.55L18.95 0.55ZM35.15 0L35.15-2.95 38.45-3.35 38.45-23.05 35.25-23.95 35.25-27.4 43-28.45 43.15-28.45 44.4-27.45 44.4-26.35 44.25-22.3 44.4-22.3Q44.75-23.3 46.05-24.78 47.35-26.25 49.32-27.38 51.3-28.5 53.6-28.5L53.6-28.5Q54.7-28.5 55.5-28.2L55.5-28.2 55.5-20.7Q54-21.75 51.85-21.75L51.85-21.75Q48.2-21.75 45.5-19.8L45.5-19.8 45.5-3.4 51.3-2.95 51.3 0 35.15 0ZM64.65-32.35Q62.85-32.35 61.8-33.4 60.75-34.45 60.75-36.1L60.75-36.1Q60.75-38 61.95-39.25 63.15-40.5 65.15-40.5L65.15-40.5Q67.15-40.5 68.2-39.43 69.25-38.35 69.25-36.75L69.25-36.75Q69.25-34.75 68.05-33.55 66.85-32.35 64.7-32.35L64.7-32.35 64.65-32.35ZM62-3.45L62-23.05 58.45-24 58.45-27.35 67.6-28.45 67.7-28.45 69.1-27.45 69.1-3.4 72.45-3 72.45 0 58.5 0 58.5-3 62-3.45ZM75.39-13.75Q75.39-18.05 77.12-21.4 78.84-24.75 82.07-26.63 85.29-28.5 89.59-28.5L89.59-28.5Q91.59-28.5 93.04-28.2 94.49-27.9 96.29-27.4L96.29-27.4 97.74-27 97.44-18.45 93.09-18.45 91.84-23.95Q91.54-25.25 88.89-25.25L88.89-25.25Q86.09-25.25 84.52-22.8 82.94-20.35 82.89-15.15L82.89-15.15Q82.89-9.65 84.79-6.73 86.69-3.8 89.84-3.8L89.84-3.8Q93.64-3.8 96.84-5.85L96.84-5.85 97.99-3.25Q96.69-1.85 94.02-0.65 91.34 0.55 88.24 0.55L88.24 0.55Q81.84 0.55 78.62-3.4 75.39-7.35 75.39-13.75L75.39-13.75ZM99.74-37.3L99.74-39.9 108.89-41 108.99-41 110.39-40.05 110.39-25.3Q111.74-26.65 113.72-27.58 115.69-28.5 117.99-28.5L117.99-28.5Q122.79-28.5 125.82-25.13 128.84-21.75 128.84-14.8L128.84-14.8Q128.84-10.5 127.04-7 125.24-3.5 121.87-1.48 118.49 0.55 114.04 0.55L114.04 0.55Q110.09 0.55 107.19-0.13 104.29-0.8 103.49-1.35L103.49-1.35 103.49-36.7 99.74-37.3ZM115.34-24.1Q113.84-24.1 112.52-23.43 111.19-22.75 110.39-21.9L110.39-21.9 110.39-3.65Q110.69-3.1 111.79-2.75 112.89-2.4 114.29-2.4L114.29-2.4Q117.49-2.4 119.42-5.38 121.34-8.35 121.34-14.2L121.34-14.2Q121.34-19.25 119.69-21.68 118.04-24.1 115.34-24.1L115.34-24.1ZM145.49 0.55Q138.89 0.55 135.66-3.33 132.44-7.2 132.44-13.9L132.44-13.9Q132.44-18.4 134.11-21.7 135.79-25 138.84-26.75 141.89-28.5 145.89-28.5L145.89-28.5Q150.89-28.5 153.59-25.88 156.29-23.25 156.39-18.4L156.39-18.4Q156.39-15.1 155.99-13.5L155.99-13.5 139.74-13.5Q139.94-8.95 141.89-6.43 143.84-3.9 147.44-3.9L147.44-3.9Q149.39-3.9 151.46-4.55 153.54-5.2 154.74-6.1L154.74-6.1 155.99-3.35Q154.64-1.9 151.61-0.68 148.59 0.55 145.49 0.55L145.49 0.55ZM139.74-16.5L149.39-16.5Q149.49-17.9 149.49-18.65L149.49-18.65Q149.49-25.3 145.04-25.3L145.04-25.3Q142.59-25.3 141.24-23.35 139.89-21.4 139.74-16.5L139.74-16.5ZM168.79 0.45Q165.64 0.45 164.14-1 162.64-2.45 162.64-5.6L162.64-5.6 162.64-23.95 159.39-23.95 159.39-26.55Q159.79-26.7 160.84-27.08 161.89-27.45 162.44-27.7L162.44-27.7Q163.29-28.35 163.89-29.95L163.89-29.95Q164.34-31 165.54-35.15L165.54-35.15 169.54-35.15 169.74-27.8 177.39-27.8 177.39-23.95 169.79-23.95 169.79-9.9Q169.79-7.1 169.94-5.95 170.09-4.8 170.59-4.48 171.09-4.15 172.34-4.15L172.34-4.15Q173.59-4.15 174.94-4.42 176.29-4.7 177.19-5.1L177.19-5.1 178.14-2.3Q176.74-1.25 174.04-0.4 171.34 0.45 168.79 0.45L168.79 0.45Z" opacity="1" transform="matrix(1,0,0,1,0,0)" fill="#570df8" class="undefined-text-0" data-fill-palette-color="primary" id="text-0"></path></svg></g></svg></g><g transform="matrix(1,0,0,1,0,114.96035647456705)"><svg viewBox="0 0 395.52 37.37164760432766" height="37.37164760432766" width="395.52"><g transform="matrix(1,0,0,1,0,0)"><svg width="395.52" viewBox="3.55 -36.2 485.2 45.85" height="37.37164760432766" data-palette-color="#570df8"><path d="M29.05-33.7L29.05-12.9Q29.05-6.35 25.65-2.95 22.25 0.45 16.25 0.45L16.25 0.45Q10.35 0.45 6.95-2.88 3.55-6.2 3.55-12.5L3.55-12.5 3.55-33.7 8.7-33.7 8.7-12.55Q8.7-8.25 10.78-6.28 12.85-4.3 16.25-4.3L16.25-4.3Q23.9-4.3 23.9-12.8L23.9-12.8 23.9-33.7 29.05-33.7ZM57-17.15L57 0 52.1 0 52.1-16Q52.1-18.65 50.77-20.05 49.45-21.45 47.25-21.45L47.25-21.45Q44.65-21.45 42.8-19.43 40.95-17.4 40.95-13.75L40.95-13.75 40.95 0 36.05 0 36.05-25.35 40.95-25.35 40.95-21Q43.2-25.7 48.85-25.7L48.85-25.7Q52.6-25.7 54.8-23.4 57-21.1 57-17.15L57-17.15ZM68.75-35.35L68.75 0 63.8 0 63.8-35.35 68.75-35.35ZM94.74-5.75L94.74-1.35Q91.94 0.25 87.34 0.25L87.34 0.25Q81.44 0.25 77.94-3.3 74.44-6.85 74.44-12.6L74.44-12.6Q74.44-18.7 77.64-22.18 80.84-25.65 85.79-25.65L85.79-25.65Q90.64-25.65 93.49-22.63 96.34-19.6 96.34-13.9L96.34-13.9Q96.34-12.35 96.04-10.65L96.04-10.65 79.39-10.65Q79.89-7.35 82.19-5.6 84.49-3.85 87.99-3.85L87.99-3.85Q92.04-3.85 94.74-5.75L94.74-5.75ZM85.89-21.6L85.89-21.6Q83.39-21.6 81.59-19.78 79.79-17.95 79.34-14.5L79.34-14.5 91.59-14.5 91.59-15.4Q91.49-18.25 90.04-19.93 88.59-21.6 85.89-21.6ZM110.29-3.65L110.29-3.65Q112.69-3.65 114.07-4.98 115.44-6.3 115.44-8.45L115.44-8.45 115.44-11.3 111.64-11.3Q108.84-11.3 107.42-10.2 105.99-9.1 105.99-7.4L105.99-7.4Q105.99-5.65 107.09-4.65 108.19-3.65 110.29-3.65ZM115.59 0L115.59-3Q113.64 0.2 108.74 0.2L108.74 0.2Q105.14 0.2 102.97-1.88 100.79-3.95 100.79-7.15L100.79-7.15Q100.79-10.8 103.54-12.83 106.29-14.85 111.24-14.85L111.24-14.85 115.44-14.85 115.44-16.3Q115.44-18.9 114.19-20.23 112.94-21.55 110.04-21.55L110.04-21.55Q105.99-21.55 102.69-19.3L102.69-19.3 102.69-24.05Q105.64-25.75 110.49-25.75L110.49-25.75Q120.44-25.75 120.44-16.1L120.44-16.1 120.44 0 115.59 0ZM142.89-7L142.89-7Q142.89-3.6 140.49-1.68 138.09 0.25 133.99 0.25L133.99 0.25Q129.49 0.25 126.49-1.25L126.49-1.25 126.49-5.9Q129.99-3.75 133.74-3.75L133.74-3.75Q135.69-3.75 136.76-4.55 137.84-5.35 137.84-6.65L137.84-6.65Q137.84-7.75 136.99-8.63 136.14-9.5 135.26-9.93 134.39-10.35 132.29-11.25L132.29-11.25Q126.34-13.7 126.34-18.45L126.34-18.45Q126.34-21.8 128.84-23.7 131.34-25.6 135.09-25.6L135.09-25.6Q139.19-25.6 141.49-24.5L141.49-24.5 141.49-20.05Q139.04-21.5 135.19-21.5L135.19-21.5Q133.44-21.5 132.41-20.7 131.39-19.9 131.39-18.6L131.39-18.6Q131.39-18.25 131.46-17.93 131.54-17.6 131.74-17.28 131.94-16.95 132.11-16.73 132.29-16.5 132.69-16.25 133.09-16 133.31-15.83 133.54-15.65 134.06-15.4 134.59-15.15 134.84-15.03 135.09-14.9 135.71-14.63 136.34-14.35 136.59-14.25L136.59-14.25Q139.54-12.95 141.21-11.33 142.89-9.7 142.89-7ZM168.94-17L168.94 0 164.04 0 164.04-16Q164.04-18.6 162.71-20.03 161.39-21.45 159.24-21.45L159.24-21.45Q156.74-21.45 154.81-19.55 152.89-17.65 152.89-13.75L152.89-13.75 152.89 0 147.99 0 147.99-35.35 152.89-35.35 152.89-21Q155.04-25.7 160.74-25.7L160.74-25.7Q164.44-25.7 166.69-23.4 168.94-21.1 168.94-17L168.94-17ZM208.93-25.35L199.78-0.7Q196.13 9.05 188.63 9.05L188.63 9.05Q187.28 9.05 186.33 8.8L186.33 8.8 186.33 4.6Q187.13 4.8 188.03 4.8L188.03 4.8Q192.88 4.8 194.83-0.55L194.83-0.55 184.73-25.35 190.18-25.35 193.33-17.1 197.28-6.4Q197.73-7.9 200.88-17.1L200.88-17.1 203.73-25.35 208.93-25.35ZM232.58-22.03Q235.73-18.35 235.73-12.65 235.73-6.95 232.5-3.25 229.28 0.45 223.63 0.45L223.63 0.45Q218.03 0.45 214.83-3.2 211.63-6.85 211.63-12.45L211.63-12.45Q211.63-18.15 214.93-21.93 218.23-25.7 223.63-25.7L223.63-25.7Q229.43-25.7 232.58-22.03ZM216.73-12.6L216.73-12.6Q216.73-8.85 218.58-6.28 220.43-3.7 223.63-3.7L223.63-3.7Q227.03-3.7 228.8-6.2 230.58-8.7 230.58-12.55L230.58-12.55Q230.58-16.5 228.88-19.03 227.18-21.55 223.58-21.55L223.58-21.55Q220.33-21.55 218.53-18.98 216.73-16.4 216.73-12.6ZM261.88-25.35L261.88 0 256.98 0 256.98-4.35Q254.98 0.3 249.08 0.3L249.08 0.3Q245.33 0.3 243.13-1.93 240.93-4.15 240.93-8.05L240.93-8.05 240.93-25.35 245.88-25.35 245.88-9.25Q245.88-6.65 247.15-5.28 248.43-3.9 250.68-3.9L250.68-3.9Q253.53-3.9 255.25-5.9 256.98-7.9 256.98-11.55L256.98-11.55 256.98-25.35 261.88-25.35ZM273.67-13.5L273.67 0 268.77 0 268.77-25.35 273.67-25.35 273.67-20.9Q275.52-25.6 280.32-25.6L280.32-25.6Q281.02-25.6 281.87-25.45L281.87-25.45 281.87-20.65Q280.82-21.1 279.52-21.1L279.52-21.1Q276.97-21.1 275.32-18.85 273.67-16.6 273.67-13.5L273.67-13.5ZM311.32-8.3L309.02 0 303.47 0 295.52-25.35 300.72-25.35 303.07-16.95Q304.22-12.95 305.02-9.9 305.82-6.85 306.02-5.8L306.02-5.8 306.22-4.75Q306.87-7.9 309.52-17L309.52-17 311.97-25.35 316.72-25.35 319.22-17Q320.42-12.85 321.27-9.78 322.12-6.7 322.37-5.7L322.37-5.7 322.57-4.7Q323.17-7.65 325.97-17L325.97-17 328.47-25.35 333.42-25.35 325.37 0 319.77 0 317.42-8.3Q316.37-12.1 315.59-15.03 314.82-17.95 314.57-19L314.57-19 314.37-20Q313.67-16.75 311.32-8.3L311.32-8.3ZM342.97-25.35L342.97 0 338.02 0 338.02-25.35 342.97-25.35ZM343.57-33.1L343.57-33.1Q343.57-31.85 342.67-30.95 341.77-30.05 340.47-30.05 339.17-30.05 338.29-30.93 337.42-31.8 337.42-33.1 337.42-34.4 338.29-35.3 339.17-36.2 340.47-36.2 341.77-36.2 342.67-35.3 343.57-34.4 343.57-33.1ZM371.01-17.15L371.01 0 366.11 0 366.11-16Q366.11-18.65 364.79-20.05 363.46-21.45 361.26-21.45L361.26-21.45Q358.66-21.45 356.81-19.43 354.96-17.4 354.96-13.75L354.96-13.75 354.96 0 350.06 0 350.06-25.35 354.96-25.35 354.96-21Q357.21-25.7 362.86-25.7L362.86-25.7Q366.61-25.7 368.81-23.4 371.01-21.1 371.01-17.15L371.01-17.15ZM398.56-17.15L398.56 0 393.66 0 393.66-16Q393.66-18.65 392.34-20.05 391.01-21.45 388.81-21.45L388.81-21.45Q386.21-21.45 384.36-19.43 382.51-17.4 382.51-13.75L382.51-13.75 382.51 0 377.61 0 377.61-25.35 382.51-25.35 382.51-21Q384.76-25.7 390.41-25.7L390.41-25.7Q394.16-25.7 396.36-23.4 398.56-21.1 398.56-17.15L398.56-17.15ZM410.31-25.35L410.31 0 405.36 0 405.36-25.35 410.31-25.35ZM410.91-33.1L410.91-33.1Q410.91-31.85 410.01-30.95 409.11-30.05 407.81-30.05 406.51-30.05 405.63-30.93 404.76-31.8 404.76-33.1 404.76-34.4 405.63-35.3 406.51-36.2 407.81-36.2 409.11-36.2 410.01-35.3 410.91-34.4 410.91-33.1ZM438.36-17.15L438.36 0 433.46 0 433.46-16Q433.46-18.65 432.13-20.05 430.81-21.45 428.61-21.45L428.61-21.45Q426.01-21.45 424.16-19.43 422.31-17.4 422.31-13.75L422.31-13.75 422.31 0 417.41 0 417.41-25.35 422.31-25.35 422.31-21Q424.56-25.7 430.21-25.7L430.21-25.7Q433.96-25.7 436.16-23.4 438.36-21.1 438.36-17.15L438.36-17.15ZM466.3-25.35L466.3-2.15Q466.3 3.7 462.98 6.68 459.65 9.65 454.45 9.65L454.45 9.65Q449.55 9.65 446.2 8L446.2 8 446.2 3.05Q449.4 5.15 453.95 5.15L453.95 5.15Q461.4 5.15 461.4-2.2L461.4-2.2 461.4-4.8Q458.95-0.7 454.05-0.7L454.05-0.7Q449.75-0.7 446.7-3.88 443.65-7.05 443.65-12.85L443.65-12.85Q443.65-18.45 446.5-22.08 449.35-25.7 454.05-25.7L454.05-25.7Q459.1-25.7 461.4-21.4L461.4-21.4 461.4-25.35 466.3-25.35ZM448.8-12.95L448.8-12.95Q448.8-9 450.63-6.95 452.45-4.9 454.95-4.9L454.95-4.9Q457.55-4.9 459.48-6.93 461.4-8.95 461.4-12.6L461.4-12.6Q461.4-17.1 459.58-19.25 457.75-21.4 455.15-21.4L455.15-21.4Q452.2-21.4 450.5-19.07 448.8-16.75 448.8-12.95ZM488.75-7L488.75-7Q488.75-3.6 486.35-1.68 483.95 0.25 479.85 0.25L479.85 0.25Q475.35 0.25 472.35-1.25L472.35-1.25 472.35-5.9Q475.85-3.75 479.6-3.75L479.6-3.75Q481.55-3.75 482.63-4.55 483.7-5.35 483.7-6.65L483.7-6.65Q483.7-7.75 482.85-8.63 482-9.5 481.13-9.93 480.25-10.35 478.15-11.25L478.15-11.25Q472.2-13.7 472.2-18.45L472.2-18.45Q472.2-21.8 474.7-23.7 477.2-25.6 480.95-25.6L480.95-25.6Q485.05-25.6 487.35-24.5L487.35-24.5 487.35-20.05Q484.9-21.5 481.05-21.5L481.05-21.5Q479.3-21.5 478.28-20.7 477.25-19.9 477.25-18.6L477.25-18.6Q477.25-18.25 477.33-17.93 477.4-17.6 477.6-17.28 477.8-16.95 477.98-16.73 478.15-16.5 478.55-16.25 478.95-16 479.18-15.83 479.4-15.65 479.93-15.4 480.45-15.15 480.7-15.03 480.95-14.9 481.58-14.63 482.2-14.35 482.45-14.25L482.45-14.25Q485.4-12.95 487.08-11.33 488.75-9.7 488.75-7Z" opacity="1" transform="matrix(1,0,0,1,0,0)" fill="#570df8" class="undefined-text-1" data-fill-palette-color="secondary" id="text-1"></path></svg></g></svg></g></svg></g></svg></g><g><svg viewBox="0 0 157.89212222777442 157.89212222777442" height="157.89212222777442" width="157.89212222777442"><g><svg></svg></g><g id="icon-0"><svg viewBox="0 0 157.89212222777442 157.89212222777442" height="157.89212222777442" width="157.89212222777442"><g><path transform="scale(1.57892,1.57892)" d="M30 100c-16.569 0-30-13.431-30-30v-40c0-16.569 13.431-30 30-30h40c16.569 0 30 13.431 30 30v40c0 16.569-13.431 30-30 30z" fill="#570df8" fill-rule="nonzero" stroke="none" stroke-width="1" stroke-linecap="butt" stroke-linejoin="miter" stroke-miterlimit="10" stroke-dasharray="" stroke-dashoffset="0" font-family="none" font-weight="none" font-size="none" text-anchor="none" style="mix-blend-mode: normal" data-fill-palette-color="accent"></path></g><g transform="matrix(1,0,0,1,50.53091551388721,45.75622580657766)"><svg viewBox="0 0 56.8302912 66.3796706146191" height="66.3796706146191" width="56.8302912"><g><svg xmlns="http://www.w3.org/2000/svg" xmlns:xlink="http://www.w3.org/1999/xlink" version="1.1" x="0" y="0" viewBox="7.193 0 85.614 100" enable-background="new 0 0 100 100" xml:space="preserve" height="66.3796706146191" width="56.8302912" class="icon-gn-0" data-fill-palette-color="quaternary" id="gn-0"><g fill="#ffffff" data-fill-palette-color="quaternary"><rect x="7.193" y="21.403" fill-rule="evenodd" clip-rule="evenodd" width="8.827" height="78.597" fill="#ffffff" data-fill-palette-color="quaternary"></rect><path fill-rule="evenodd" clip-rule="evenodd" d="M64.184 17.359c5.943 0 10.766 4.875 10.766 10.884 0 6.006-4.822 10.883-10.766 10.883-5.94 0-10.759-4.877-10.759-10.883C53.425 22.233 58.243 17.359 64.184 17.359" fill="#ffffff" data-fill-palette-color="quaternary"></path><polygon fill-rule="evenodd" clip-rule="evenodd" points="11.786,10.641 11.786,15.722 16.021,15.722 20.373,17.896 31.375,17.896    35.731,15.722 39.963,15.722 39.963,10.641 35.731,10.641 31.375,8.587 20.373,8.587 16.021,10.641  " fill="#ffffff" data-fill-palette-color="quaternary"></polygon><rect x="35.731" y="21.403" fill-rule="evenodd" clip-rule="evenodd" width="8.949" height="78.597" fill="#ffffff" data-fill-palette-color="quaternary"></rect><polygon fill-rule="evenodd" clip-rule="evenodd" points="56.527,0 55.32,4.838 59.552,5.927 63.18,8.948 73.938,11.73    78.538,10.641 82.77,11.612 83.977,6.773 79.745,5.806 76.117,2.664 65.354,0 60.759,0.971  " fill="#ffffff" data-fill-palette-color="quaternary"></polygon><polygon fill-rule="evenodd" clip-rule="evenodd" points="84.219,21.885 62.815,97.586 71.4,100 92.807,24.424  " fill="#ffffff" data-fill-palette-color="quaternary"></polygon></g></svg></g></svg></g></svg></g></svg></g></svg></g><defs></defs></svg><rect width="395.52" height="108.53831017223662" fill="none" stroke="none" visibility="hidden"></rect></g></svg></g></svg>